HIERARCHY
ROOT Hips
{
	OFFSET 0.000000 0.000000 0.000000 
	CHANNELS 6 Xposition Yposition Zposition Yrotation Zrotation Xrotation 
	JOINT Lumbar
	{
		OFFSET 0.000000 0.000000 0.000000 
		CHANNELS 3 Zrotation Xrotation Yrotation
		JOINT Neck
		{
			OFFSET 0.000000 0.445665 0.000000 
			CHANNELS 3 Zrotation Xrotation Yrotation
			End Site
			{
				OFFSET 0.000000 0.227535 0.000000 
			}
		}
		JOINT RightShoulder
		{
			OFFSET 0.019635 0.377685 0.194865 
			CHANNELS 3 Zrotation Xrotation Yrotation
			JOINT RightElbow
			{
				OFFSET 0.000000 -0.243375 0.000000 
				CHANNELS 2 Zrotation Yrotation
				JOINT RightWrist
				{
					OFFSET 0.000000 -0.264825 0.000000 
					CHANNELS 2 Zrotation Xrotation
					End Site
					{
						OFFSET 0.006600 -0.176220 0.000990 
					}
				}
			}
		}
		JOINT LeftShoulder
		{
			OFFSET 0.019635 0.377685 -0.194865 
			CHANNELS 3 Zrotation Xrotation Yrotation
			JOINT LeftElbow
			{
				OFFSET 0.000000 -0.243375 0.000000 
				CHANNELS 2 Zrotation Yrotation
				JOINT LeftWrist
				{
					OFFSET 0.000000 -0.264825 0.000000 
					CHANNELS 2 Zrotation Xrotation
					End Site
					{
						OFFSET 0.006600 -0.176220 -0.000990 
					}
				}
			}
		}
	}
	JOINT RightHip
	{
		OFFSET 0.052140 -0.069960 0.075570 
		CHANNELS 3 Zrotation Xrotation Yrotation
		JOINT RightKnee
		{
			OFFSET 0.000000 -0.402270 0.000000 
			CHANNELS 1 Zrotation
			JOINT RightAnkle
			{
				OFFSET 0.000000 -0.404085 0.000000 
				CHANNELS 3 Zrotation Xrotation Yrotation
				End Site
				{
					OFFSET 0.204105 -0.089430 0.008415 
				}
			}
		}
	}
	JOINT LeftHip
	{
		OFFSET 0.052140 -0.069960 -0.075570 
		CHANNELS 3 Zrotation Xrotation Yrotation
		JOINT LeftKnee
		{
			OFFSET 0.000000 -0.402270 0.000000 
			CHANNELS 1 Zrotation
			JOINT LeftAnkle
			{
				OFFSET 0.000000 -0.404085 0.000000 
				CHANNELS 3 Zrotation Xrotation Yrotation
				End Site
				{
					OFFSET 0.204105 -0.089430 -0.008415 
				}
			}
		}
	}
}
MOTION
Frames: 16
Frame Time: 0.02
0.57623 0.5456 0.07176 179.28006 0 -6.92027 30.4039 6.99503 -6.40378 -60.53955 6.11418 2.60858 169.87977 -49.97556 57.13278 137.62328 124.26293 -44.47322 -8.44461 169.88197 49.7126 -45.28758 137.62445 -127.67477 -32.61161 9.87822 79.32252 4.9203 1.16571 -10.57858 -28.68694 -2.86343 2.59018 79.23626 1.23379 -12.89378 -19.71303 -26.54234 3.31524 -6.71486
0.57608 0.54584 0.07196 179.38219 0 -6.96282 30.34846 7.0158 -6.48337 -60.50774 6.11444 2.59682 169.85809 -49.97836 57.29013 137.61169 124.37018 -44.42149 -8.4648 169.88196 49.91467 -45.37313 137.62445 -127.73163 -32.49224 9.92464 79.10201 4.8907 1.23569 -10.94632 -28.71224 -2.86283 2.67899 79.21182 1.05023 -12.80396 -19.2292 -26.6283 3.33389 -6.61345
0.57589 0.54617 0.07223 179.49366 0 -7.01312 30.29518 7.04778 -6.56238 -60.48881 6.09321 2.58176 169.83057 -49.97532 57.52713 137.59699 124.45788 -44.42372 -8.46404 169.88195 50.06508 -45.52779 137.62444 -127.71931 -32.36996 9.94693 78.90887 4.888 1.1893 -11.22963 -28.71707 -2.84559 2.73598 79.13278 0.82656 -12.7017 -18.72251 -26.75376 3.35182 -6.5226
0.57571 0.54646 0.07245 179.59787 0 -7.05786 30.24079 7.07306 -6.63836 -60.46649 6.08332 2.56819 169.80651 -49.97678 57.7242 137.58415 124.56405 -44.40216 -8.47296 169.88194 50.23998 -45.64033 137.62444 -127.74844 -32.24951 9.98471 78.70716 4.8766 1.20213 -11.54375 -28.74038 -2.83857 2.80704 79.08241 0.62455 -12.59982 -18.24159 -26.86264 3.37016 -6.42831
0.57556 0.54677 0.07272 179.71511 0 -7.11129 30.18566 7.10498 -6.72905 -60.43184 6.06716 2.55483 169.77895 -49.97058 57.93806 137.56939 124.63123 -44.37798 -8.4817 169.88193 50.41223 -45.7962 137.62443 -127.73762 -32.12521 10.00443 78.4906 4.85213 1.18976 -11.89288 -28.72548 -2.82251 2.88323 79.01612 0.40581 -12.51832 -17.69737 -26.96556 3.38894 -6.32945
0.57533 0.54704 0.07291 179.80743 0 -7.14848 30.13308 7.12581 -6.78863 -60.42671 6.05868 2.54051 169.7574 -49.97893 58.13448 137.55794 124.77398 -44.37077 -8.48588 169.88192 50.57763 -45.8795 137.62443 -127.7922 -32.00953 10.05537 78.31132 4.86058 1.20054 -12.14852 -28.78478 -2.8202 2.93949 78.96998 0.21293 -12.39224 -17.27881 -27.08992 3.40636 -6.2428
0.5749 0.54713 0.07287 179.82712 0 -7.13829 30.08695 7.11282 -6.76265 -60.49938 6.07814 2.52039 169.75305 -50.02833 58.2757 137.55593 125.13465 -44.41155 -8.47983 169.88193 50.72937 -45.73898 137.62443 -128.05018 -31.91033 10.20132 78.22294 4.95339 1.31745 -12.15816 -29.05767 -2.8635 2.95266 78.99158 0.10546 -12.14495 -17.21476 -27.26905 3.41973 -6.17913
0.5744 0.54717 0.07274 179.82161 0 -7.11159 30.04351 7.08838 -6.7052 -60.60168 6.10571 2.50007 169.75508 -50.09254 58.39454 137.55743 125.57045 -44.46528 -8.47033 169.88194 50.87654 -45.52455 137.62444 -128.37477 -31.82132 10.37869 78.17179 5.07812 1.45913 -12.07763 -29.40498 -2.9203 2.94558 79.03551 0.02509 -11.85372 -17.27745 -27.46745 3.4317 -6.12844
0.57394 0.54723 0.07265 179.82861 0 -7.09285 29.99902 7.0695 -6.66191 -60.69106 6.12862 2.48244 169.75478 -50.15047 58.51518 137.55761 125.96957 -44.50339 -8.46409 169.88195 51.03094 -45.34826 137.62444 -128.66512 -31.73335 10.53986 78.1069 5.18797 1.58032 -12.04348 -29.71609 -2.96828 2.94469 79.06997 -0.07015 -11.58364 -17.28061 -27.65375 3.4445 -6.07709
0.57344 0.54729 0.07255 179.83156 0 -7.07247 29.95379 7.04949 -6.61928 -60.77856 6.15508 2.45388 169.752 -50.2068 58.67301 137.55656 126.38128 -44.58321 -8.44996 169.88196 51.16387 -45.15466 137.62445 -128.97095 -31.62225 10.70899 78.02982 5.30044 1.73613 -11.98385 -30.03755 -3.02694 2.95579 79.0997 -0.15642 -11.3081 -17.29098 -27.85572 3.45656 -6.00476
0.573 0.54735 0.07246 179.83673 0 -7.05148 29.91079 7.02899 -6.56773 -60.87682 6.17612 2.44786 169.75583 -50.26942 58.7482 137.55888 126.78167 -44.5801 -8.45173 169.88197 51.3385 -44.97927 137.62445 -129.25986 -31.56064 10.86845 77.98629 5.41458 1.82761 -11.95673 -30.3541 -3.06691 2.93709 79.14526 -0.25395 -11.03366 -17.31697 -28.0289 3.46973 -5.97816
0.5727 0.54742 0.07241 179.8549 0 -7.03271 29.87272 7.00974 -6.49987 -60.99785 6.18217 2.50595 169.77758 -50.35138 58.58999 137.57023 127.15995 -44.33108 -8.49812 169.88196 51.65211 -44.86658 137.62445 -129.49803 -31.64301 11.00117 78.02905 5.52617 1.73236 -12.0436 -30.6503 -3.0508 2.84503 79.22967 -0.3928 -10.7728 -17.35287 -28.11952 3.48706 -6.08237
0.57246 0.54749 0.07237 179.87598 0 -7.01389 29.83693 6.99038 -6.42403 -61.12857 6.18224 2.58637 169.80557 -50.43816 58.35095 137.58474 127.51933 -44.00044 -8.56071 169.88195 52.00393 -44.77529 137.62445 -129.71497 -31.77301 11.12182 78.10365 5.63806 1.57242 -12.16636 -30.93703 -3.01568 2.72335 79.32935 -0.543 -10.51444 -17.40061 -28.17997 3.50542 -6.23073
0.5722 0.54756 0.07232 179.89519 0 -6.99512 29.80042 6.97111 -6.35144 -61.25458 6.18381 2.65544 169.82993 -50.51912 58.15552 137.59741 127.86927 -43.71592 -8.61615 169.88194 52.32351 -44.67785 137.62444 -129.93388 -31.87482 11.24306 78.16173 5.74926 1.44497 -12.27166 -31.22066 -2.99015 2.6124 79.42205 -0.6855 -10.25543 -17.4445 -28.25297 3.52278 -6.35368
0.5719 0.54764 0.07228 179.91585 0 -6.97559 29.76254 6.95125 -6.27929 -61.38288 6.19067 2.72972 169.85781 -50.6159 57.93039 137.6119 128.29747 -43.3938 -8.67078 169.88193 52.70538 -44.56359 137.62443 -130.18729 -32.00467 11.38587 78.22977 5.86401 1.30624 -12.37844 -31.53793 -2.96121 2.51111 79.51595 -0.83797 -9.99376 -17.48642 -28.33169 3.54229 -6.49938
0.5717 0.54771 0.07224 179.9345 0 -6.95792 29.7282 6.93279 -6.2048 -61.50838 6.18513 2.7983 169.87979 -50.68068 57.74814 137.62332 128.55778 -43.13039 -8.73069 169.88192 52.96704 -44.48939 137.62443 -130.36317 -32.08724 11.48067 78.28417 5.97094 1.17409 -12.49206 -31.78216 -2.93451 2.38439 79.61033 -0.97251 -9.73764 -17.5335 -28.39095 3.55763 -6.60836
